<?xml version="1.0" encoding="UTF-8"?>
<svg version="1.1" viewBox="0 0 2048 2048" width="512" height="512" xmlns="http://www.w3.org/2000/svg">
<path transform="translate(605)" d="m0 0h297l4 2 36 6 26 6 24 7 25 9 27 12 20 10 19 11 20 13 14 10 13 10 13 11 10 9 8 7 19 19 7 8 11 13 13 17 14 20 11 18 14 25 10 21 10 25 10 30 8 32 5 28 3 26 1 15 1 42v124l12 5 11 7 12 9v2l3 1 9 11 9 14 6 12 48 1 19 3 20 8 14 9 11 9 7 8 9 13 8 16 4 13 2 12v159l-3 17-6 16-8 14-8 10-7 8-13 10-12 7-16 6-20 4h-50l-1 5-10 19-12 14-10 9-11 7-16 8-19 5-6 1-63 1h-64l-4 16-11 32-16 35-12 22-14 22-14 19-13 16-12 14-21 21-16 14-10 8-13 10-21 14-15 9-22 12-10 5-1 71h119l34 3 24 4 28 7 30 10 10 4 4-1 14-12 20-14 24-13 19-8 18-6 23-5 22-3h40l22 3 23 5 18 6 21 9 17 9 15 10 11 8 14 12 6 5h141l7-3 13-12 18-13 15-9 15-8 19-8 23-7 18-4 22-3h41l22 3 25 6 20 7 22 10 17 10 12 8 14 11 12 11 6 5 7 8 9 10 13 18 9 15 8 15 10 25 7 25 3 14h2v368l-2 1-4 15-8 20-8 14-12 16-16 16-16 11-19 10-24 8-11 3h-47v-2l-22-6-16-7-14-8-13-10-9-8-7-8-9-11-9-15-7-15-6-20-3-19-7-78-1-3-17-4-20-7-20-9-18-10-17-12-10-8-10-9-4-3h-146l-2 4-8 7-18 14-20 12-17 9-26 10-22 6h-2l-3 39-4 44-4 22-6 18-8 16-9 14-7 9h-2l-2 4-9 9-13 10-15 9-18 8-20 6-7 2h-1066l-22-7-16-8-13-10-13-13-9-14-7-14-5-18-1-8-1-130 1-74 3-30 4-23 7-28 10-30 8-19 12-25 14-24 7-10 12-17 10-12 9-11 30-30 11-9 15-12 19-13 18-11 22-12 25-11 28-10 27-7 26-5 24-3 14-1 122-1v-69l-5-3-23-12-20-12-18-12-12-9-16-13-13-12-8-7-13-13-7-8-9-10-10-13-11-15-10-15-9-15-7-12-11-23-10-24-9-27-4-15h-80v169l2 12 4 8 7 7 10 5 19 3 12 6 7 7 6 12 1 4v9l-2 9-7 10-8 7-10 4-11 1-18-2-16-5-16-8-13-9-13-13-10-14-8-17-4-14-2-14v-184l-6-2-15-8-10-8-10-9-10-13-7-12-4-9-51-1-16-3-16-6-16-9-14-12-8-9-9-14-6-12-6-19v-175l7-20 9-17 10-13 8-8 15-11 14-7 16-5 13-2 50-1 8-16 7-11 4-5h2l2-4 12-11 15-9 11-5 1-162 3-35 6-36 8-32 12-36 12-28 8-16 9-17 12-20 11-16 11-15 13-16 1-2h2l2-4 15-16 3-4h2v-2h2v-2l8-7 15-14 11-9 13-10 17-12 20-13 29-16 19-9 27-11 34-11 30-7 28-5zm19 69-30 3-31 6-23 6-26 9-26 11-19 10-14 8-19 12-26 20-10 9-8 7-22 22-9 11-11 13-12 17-12 19-10 18-12 25-11 28-9 31-5 24-3 19-2 24-1 158 2 1h65l1-14v-120l1-26 3-25 6-28 6-21 11-28 8-16 10-18 14-21 11-14 11-13 10-10v-2l4-2 10-10 11-9 15-11 15-10 16-9 16-8 18-8 27-9 25-6 28-4 16-1h234l25 2 25 4 27 7 23 8 24 11 17 9 17 11 18 13 14 12 10 9 12 12 7 8 13 16 9 13 10 16 12 22 9 21 11 33 6 28 3 24 1 17 1 146 2 1h64l1-1v-151l-2-27-5-33-8-31-9-27-11-26-10-20-10-17-14-21-12-16-12-14-11-12-19-19-11-9-13-11-19-13-17-11-22-12-23-11-29-11-28-8-24-5-20-3-26-2zm17 136-26 2-25 5-26 8-20 9-17 9-18 12-16 13-10 9-12 12-9 11-11 15-10 16-11 22-8 21-7 27-1 8 7-6 5-6 8-7 14-11 14-9 15-8 18-7 19-5 20-3h24l24 4 20 6 19 8 11 6 11 7 13 10 10 9 11 11 9 11 10 10 14 9 13 6 13 3 6 1h17l15-3 13-5 13-7 13-11 7-8v-2h2l9-11 7-6v-2l4-2 7-6 11-8 13-8 21-10 18-6 18-4 13-2h25l19 3 19 5 16 6 21 11 13 9 10 8 12 11 9 10 1-3-6-25-7-21-8-18-9-17-12-18-10-13-16-17-7-7-11-9-12-9-19-12-17-9-20-8-19-6-23-5-16-2-20-1zm-100 205-15 2-18 6-14 8-12 9-10 9-12 13-8 11-10 16-8 16-8 19-6 19-5 21-3 17-2 27v365l2 29 5 30 5 20 8 25 8 20 12 25 8 14 12 19 10 13 8 10 12 14 22 22 11 9 16 13 18 12 13 8 27 14 21 9 33 11 27 6 28 4 12 1h45l28-3 31-6 27-8 24-9 16-7 22-12 15-9 19-13 11-9 14-12 6-5v-2l4-2 10-10 7-8 12-14 13-18 10-15 13-23 10-22 9-24 8-27 6-31 3-28 1-42v-288l-1-57-3-25-5-24-9-29-9-20-9-17-11-16-9-11-14-14-15-11-16-8-15-5-14-2h-11l-18 3-15 5-14 7-13 9-11 10v2h-2l-9 11-10 11-3 2v2l-4 2-14 11-17 10-20 8-13 4-16 3-9 1h-25l-21-3-23-7-19-9-11-7-12-9-15-14-9-11-6-7-8-7-13-10-15-8-18-6-9-2-9-1zm-309 239-10 4-8 6-6 9-2 6-1 9v275l3 12 6 9 8 6 11 4h109l-1-339-1-1zm929 0-1 340h109l11-4 10-9 5-9 1-5v-286l-4-11-9-10-10-5-5-1zm-1062 68-9 2-10 6-6 7-4 9-1 4v149l4 11 8 9 9 5 9 2h37v-204zm1267 0v204h38l12-4 8-6 6-9 2-6 1-7v-143l-3-10-6-9-8-6-8-3-6-1zm-717 636v89l2 14 5 16 8 16 10 13 11 11 10 7 10 6 15 6 19 4h23l16-3 16-6 14-8 9-7 10-9 9-12 8-14 6-18 2-10 1-30v-65l-10 1-26 5-30 4-30 2h-15l-28-2-26-3-26-5-8-2zm669 81-22 3-21 6-15 6-17 9-12 8-11 9-10 9-11 12-12 17-9 16-8 19-6 21-3 25v319l3 16 8 16 10 13 10 8 16 8 9 3 7 1h18l10-2 13-5 14-9 6-5 8-10 8-16 3-11 4-43 6-71 3-12 6-9 7-6 10-4 29-5 18-5 23-10 18-11 14-11 8-7v-2l4-2 4-4v-2l4-2 9-5 7-2h183l10 3 9 6 14 14 11 9 16 11 19 10 19 7 21 5 19 3 10 4 8 6 6 9 3 12 9 107 2 12 5 14 9 14 10 10 14 9 14 5 11 2h14l15-3 17-8 10-8 8-8 7-11 5-12 3-15v-320l-3-24-6-22-9-21-9-16-10-14-12-13-8-8-17-13-15-9-17-8-21-7-20-4-11-1h-24l-17 2-21 5-19 7-19 10-17 12-10 9-2 1v2h-2v2h-2l-6 7-10 7-10 3h-185l-11-4-12-11-7-7-11-9-14-10-16-9-19-8-17-5-16-3-10-1zm-855 34-32 3-29 6-24 7-25 10-16 8-15 8-11 7-13 9-13 10-14 12-22 22-5 6v2h-2l-10 13-12 17-13 22-11 23-8 20-7 23-5 21-4 28-1 18v187l3 10 4 7h2l2 4 8 5 10 3h911l-2-6-8-17-5-17-3-18-1-26v-278l1-33 3-22 6-25 6-18 11-25 4-7-1-3-24-7-24-5-26-3-17-1h-113l-5 19-8 20-8 15-11 16-11 13-9 9-11 9-15 10-21 11-20 7-22 5-21 2h-12l-26-3-19-5-16-6-16-8-13-8-12-9-15-14-9-10-10-14-9-15-7-16-5-15-3-12-1-1z"/>
<path transform="translate(1326,1501)" d="m0 0h10l10 3 10 7 6 9 3 7 1 5v37h33l12 2 10 6 5 5 6 9 2 7v12l-4 11-8 10-8 5-14 3h-34v37l-3 10-6 10-7 6-13 5h-12l-11-4-7-5-6-8-4-9-1-6v-36h-37l-13-4-10-9-5-8-3-8v-11l4-12 6-8 9-6 8-3 4-1h36l1-36 2-9 4-8 4-5 10-7z"/>
<path transform="translate(644,1057)" d="m0 0h9l11 4 22 13 17 8 17 5 18 3h29l17-3 18-6 16-8 16-10 8-4 8-2 11 1 10 4 7 5 7 10 3 9v13l-4 11-9 10-13 9-16 9-19 9-22 7-24 5-20 2h-17l-21-2-25-5-21-7-20-9-18-10-12-9-7-7-5-10-1-4v-12l4-11 8-10 8-5z"/>
<path transform="translate(1803,1501)" d="m0 0h45l9 3 7 4 5 5 4 5 4 9 1 4v9l-3 10-6 9-8 7-11 4-7 1h-35l-11-2-10-6-7-8-5-10-1-5v-8l4-13 7-9 11-7z"/>
<path transform="translate(1802,1638)" d="m0 0h48l10 4 8 6 7 10 3 10v9l-3 10-8 11-9 6-11 3h-43l-10-3-6-4-8-8-5-11-1-5v-7l4-13 6-8 9-7z"/>
<path transform="translate(182,2047)" d="m0 0 2 1z"/>
</svg>
